<svg width="512" height="512" xmlns="http://www.w3.org/2000/svg"><defs><radialGradient id="a" cx="158.429" cy="578.088" r="65" gradientUnits="userSpaceOnUse" gradientTransform="matrix(0 -7.68768 7.1521 0 -4000.591 1760.984)"><stop offset="0" stop-color="#fd5"/><stop offset=".1" stop-color="#fd5"/><stop offset=".5" stop-color="#ff543e"/><stop offset="1" stop-color="#c837ab"/></radialGradient><radialGradient id="b" cx="147.694" cy="473.455" r="65" gradientUnits="userSpaceOnUse" gradientTransform="matrix(.67468 3.36958 -13.89304 2.78179 6393.591 -1778.399)"><stop offset="0" stop-color="#3771c8"/><stop stop-color="#3771c8" offset=".128"/><stop offset="1" stop-color="#60f" stop-opacity="0"/></radialGradient></defs><rect fill="url(#a)" width="512" height="512" rx="76"/><rect fill="url(#b)" width="512" height="512" rx="15%"/><path fill="#fff" d="M256.019 69.818c-50.564 0-56.909.221-76.769 1.125-19.82.908-33.349 4.046-45.187 8.65-12.246 4.755-22.633 11.116-32.982 21.469-10.356 10.348-16.717 20.736-21.488 32.977-4.616 11.842-7.758 25.375-8.65 45.188-.888 19.86-1.121 26.209-1.121 76.773 0 50.564.225 56.89 1.125 76.75.911 19.82 4.049 33.349 8.65 45.187 4.759 12.246 11.12 22.633 21.473 32.982 10.344 10.356 20.732 16.733 32.969 21.488 11.846 4.604 25.379 7.742 45.196 8.65 19.859.904 26.201 1.125 76.761 1.125 50.568 0 56.894-.221 76.754-1.125 19.82-.908 33.365-4.046 45.211-8.65 12.241-4.755 22.613-11.132 32.958-21.488 10.356-10.349 16.717-20.736 21.488-32.978 4.577-11.842 7.719-25.375 8.65-45.188.892-19.859 1.125-26.189 1.125-76.753s-.233-56.91-1.125-76.769c-.931-19.821-4.073-33.35-8.65-45.188-4.771-12.245-11.132-22.633-21.488-32.981-10.357-10.357-20.713-16.718-32.97-21.469-11.869-4.604-25.406-7.742-45.227-8.65-19.859-.904-26.181-1.125-76.761-1.125zm-16.702 33.552c4.957-.008 10.489 0 16.702 0 49.711 0 55.603.178 75.233 1.07 18.153.83 28.005 3.864 34.568 6.412 8.689 3.374 14.883 7.408 21.396 13.925 6.516 6.516 10.55 12.722 13.932 21.411 2.548 6.555 5.586 16.407 6.412 34.56.892 19.626 1.086 25.522 1.086 75.209 0 49.688-.194 55.583-1.086 75.21-.83 18.153-3.864 28.005-6.412 34.56-3.374 8.689-7.416 14.875-13.932 21.388-6.517 6.516-12.704 10.55-21.396 13.925-6.555 2.56-16.415 5.585-34.568 6.415-19.626.892-25.522 1.086-75.233 1.086-49.714 0-55.606-.194-75.233-1.086-18.152-.838-28.004-3.871-34.571-6.419-8.689-3.375-14.895-7.409-21.411-13.925-6.517-6.517-10.55-12.707-13.933-21.399-2.548-6.556-5.585-16.408-6.411-34.56-.893-19.627-1.071-25.523-1.071-75.241 0-49.719.178-55.583 1.071-75.21.83-18.153 3.863-28.005 6.411-34.568 3.375-8.688 7.416-14.894 13.933-21.411 6.516-6.516 12.722-10.55 21.411-13.932 6.563-2.56 16.419-5.586 34.571-6.42 17.176-.775 23.832-1.008 58.531-1.047zm116.085 30.914c-17.199 0-27.951 18.618-19.352 33.512 8.6 14.895 30.1 14.895 38.699 0a22.363 22.363 0 0 0 2.995-11.178c0-12.335-10.008-22.342-22.342-22.342zm-99.383 26.104c-52.802 0-95.612 42.81-95.612 95.612 0 52.802 42.81 95.593 95.612 95.593 52.802 0 95.597-42.791 95.597-95.593 0-52.802-42.799-95.612-95.601-95.612zm0 33.551c34.273 0 62.061 27.784 62.061 62.061 0 34.273-27.788 62.061-62.061 62.061-34.276 0-62.06-27.788-62.06-62.061 0-34.277 27.784-62.061 62.06-62.061z"/></svg>